<svg version="1.1" id="Layer_1" xmlns="http://www.w3.org/2000/svg" xmlns:xlink="http://www.w3.org/1999/xlink" x="0px" y="0px"
	 width="100%" viewBox="0 0 1024 1024" enable-background="new 0 0 1024 1024" xml:space="preserve">
<path fill="#000000" opacity="1.000000" stroke="none" 
	d="
M500.787079,853.537476 
	C512.057739,850.603455 522.178894,845.770081 532.281799,840.954346 
	C538.207764,838.129639 540.337524,832.127869 541.443237,826.495056 
	C544.142761,812.743042 548.905457,800.175781 559.216309,790.373047 
	C566.924255,783.044922 575.068420,776.401245 587.017578,778.565186 
	C590.245483,779.149780 593.673035,778.771790 596.999756,778.626282 
	C599.586914,778.513123 601.504395,779.364197 602.979980,781.957458 
	C600.813538,785.015442 598.310364,787.711670 594.657471,789.603455 
	C580.197693,797.092224 569.093445,808.129761 561.422729,822.489380 
	C558.644348,827.690491 557.774719,833.636719 556.543030,839.290955 
	C554.768005,847.438965 551.968079,855.215149 549.338867,863.051636 
	C548.493347,865.571655 548.155884,867.682983 549.122437,870.682190 
	C553.906738,868.411560 558.885437,866.910583 562.811401,863.993042 
	C569.500916,859.021912 577.189758,856.281921 584.477356,852.633850 
	C590.960571,849.388550 594.483276,843.554382 594.464172,836.811646 
	C594.416138,819.853577 602.389893,807.075256 614.258789,796.288452 
	C617.777954,793.090149 622.365295,790.551819 627.599609,790.683411 
	C630.981750,790.768433 633.613342,788.398682 637.156067,788.496460 
	C641.880127,788.626892 644.810181,790.705872 646.145142,794.750244 
	C647.538513,798.971863 644.623413,804.584595 640.551453,806.285400 
	C635.014587,808.597961 629.185120,810.195801 624.546692,814.386475 
	C619.192017,819.224365 615.611633,824.916504 615.390015,832.243103 
	C615.151245,840.136108 611.788574,847.825073 613.422791,855.768433 
	C615.297546,864.880371 617.094116,874.209839 626.226135,879.493469 
	C629.972778,881.661194 634.467163,881.600098 637.735901,880.125854 
	C641.629944,878.369751 640.308716,873.238708 639.162964,870.270203 
	C634.579956,858.396301 639.987610,848.944336 646.419861,840.284363 
	C651.387207,833.596619 657.572815,827.494019 664.228943,822.473083 
	C670.480896,817.757019 677.496704,813.222473 686.062866,813.692505 
	C691.761780,814.005310 697.741272,812.169556 703.078674,815.675720 
	C703.897034,816.213257 704.963257,816.510864 705.563904,817.217651 
	C707.744629,819.783875 712.515808,821.214539 710.553833,825.791138 
	C708.638855,830.257935 700.976929,832.982971 696.702576,831.301880 
	C693.242371,829.940979 683.875732,833.558838 682.032227,836.821960 
	C680.993469,838.660522 681.966980,839.809448 683.234192,840.577637 
	C685.178833,841.756653 687.325439,843.399048 689.402771,843.423096 
	C697.819763,843.520813 705.875793,846.435730 714.441589,845.831116 
	C721.235840,845.351440 727.548157,843.724792 733.928711,841.677917 
	C742.405396,838.958679 749.756470,834.095764 757.148071,829.481750 
	C762.337402,826.242310 767.093994,822.429810 772.988892,820.360535 
	C777.121460,818.909912 782.510254,820.855103 786.232483,825.699890 
	C788.977051,829.272400 788.532776,833.362549 785.614075,837.145630 
	C782.696167,840.927673 778.123413,842.421204 774.858459,845.698853 
	C767.090637,853.496826 757.101685,857.600037 747.171387,861.649597 
	C736.415466,866.035767 725.524902,869.985901 713.559875,869.410645 
	C707.906189,869.138794 702.023926,870.294250 696.614014,869.113464 
	C689.722839,867.609497 682.595764,868.207397 675.809143,865.831116 
	C671.876953,864.454285 667.314514,865.599670 663.259155,863.572876 
	C661.842651,862.864929 660.398926,864.177917 660.395508,866.074890 
	C660.390076,869.071838 659.470947,872.590637 660.718811,874.945129 
	C662.654053,878.596863 662.704529,882.617493 663.657043,886.292480 
	C664.730530,890.434387 666.454102,894.656250 666.389587,899.188232 
	C666.272949,907.376099 658.599670,913.260193 651.050171,909.896362 
	C640.208008,905.065491 629.052002,904.040039 617.397156,904.220215 
	C606.498413,904.388611 595.849609,905.388733 585.267639,908.089783 
	C580.251648,909.369995 574.857056,909.233215 569.715515,909.816895 
	C563.058716,910.572693 556.149231,911.324463 549.837402,912.837952 
	C543.091553,914.455444 535.872192,912.534668 529.595947,916.138733 
	C529.327820,916.292664 528.935913,916.322021 528.617065,916.283142 
	C519.626465,915.186951 510.776733,917.640869 502.158417,918.942627 
	C494.313477,920.127563 486.139465,918.853149 478.405853,921.984436 
	C474.495239,923.567810 469.579407,923.727905 465.426575,923.889954 
	C456.008453,924.257446 446.868805,927.789246 437.403961,926.332825 
	C430.484161,925.268127 424.109314,928.211670 417.376831,928.598999 
	C413.792938,928.805115 411.603882,932.455994 409.678497,935.187866 
	C406.277130,940.013977 400.989380,941.143494 396.169708,943.224243 
	C386.194061,947.531067 376.634369,943.341309 366.861877,941.887695 
	C362.318634,941.211975 358.151215,939.202515 353.404266,939.195801 
	C348.646179,939.189087 344.412689,936.328735 339.525421,935.616577 
	C334.166351,934.835693 328.591583,934.002502 323.418823,932.231201 
	C317.310852,930.139709 310.876587,930.061829 304.687378,929.028625 
	C296.797211,927.711487 289.129517,925.452209 281.268738,924.065125 
	C272.693298,922.551941 263.987213,921.362732 255.510895,918.954590 
	C251.368820,917.777893 246.898071,917.231934 242.573242,916.403503 
	C236.988968,915.333923 231.362106,914.603821 225.891220,912.877197 
	C221.866806,911.607117 217.490753,911.416504 213.369873,910.782898 
	C204.987000,909.493958 196.679260,907.621765 188.422272,905.972961 
	C180.035019,904.298035 171.405060,903.564331 163.151230,900.777832 
	C159.602554,899.579834 155.491562,898.976929 151.682983,898.593750 
	C143.034531,897.723389 134.787476,894.924927 126.153519,893.885193 
	C122.941101,893.498352 118.824036,892.441040 115.857048,890.918396 
	C111.352821,888.606812 106.590096,889.290466 102.037582,887.830688 
	C89.834671,883.917725 80.811455,877.332214 76.649048,865.016663 
	C74.422493,858.428772 72.700096,851.672241 70.626511,845.030396 
	C68.503220,838.229370 66.357155,831.430237 63.991142,824.711243 
	C60.281288,814.175964 55.914814,803.896729 52.295521,793.301575 
	C49.298058,784.526917 45.997189,775.744324 42.917213,766.986328 
	C38.607433,754.731445 33.680927,742.708130 29.380966,730.449646 
	C25.632288,719.762695 21.937725,709.036560 18.256823,698.326843 
	C15.182171,689.380981 10.719974,680.846313 8.429218,671.846985 
	C6.572268,664.552002 3.109279,657.499756 3.472576,649.460571 
	C3.842649,641.271362 7.204324,635.138977 12.764806,629.558350 
	C14.999496,627.315552 18.073494,626.836182 20.353081,626.435852 
	C28.149673,625.066772 36.169674,624.916565 44.064144,626.490906 
	C45.004745,626.678528 45.925941,627.612122 46.774742,627.511719 
	C55.953007,626.426147 64.918907,628.742920 73.801620,629.982788 
	C83.875702,631.388794 93.944473,630.803589 103.888489,632.032288 
	C107.699997,632.503235 111.510155,633.752930 115.480392,633.624756 
	C116.770866,633.583130 118.209061,633.875000 119.083618,632.378967 
	C116.278458,621.898193 109.661865,613.236694 104.911003,603.682556 
	C98.884903,591.563721 93.132523,579.466614 89.296928,566.395996 
	C88.039597,562.111328 86.082710,557.739319 84.210968,553.586121 
	C82.177490,549.074097 82.109642,544.243958 81.226440,539.769836 
	C80.267471,534.911865 79.422508,529.755798 78.421722,524.884094 
	C74.758881,507.053833 77.583466,489.136475 76.711060,471.295654 
	C76.324768,463.395966 79.070335,455.871796 80.186272,448.165161 
	C81.351395,440.118958 84.191032,432.661102 86.981194,425.282745 
	C88.818947,420.423004 91.215134,415.565918 93.634491,410.856689 
	C97.440376,403.448669 99.053253,395.134033 103.578156,388.024658 
	C109.868759,378.141113 116.240799,368.280945 121.893234,358.033081 
	C124.275620,353.713806 127.726822,350.242584 129.916367,345.847198 
	C131.662750,342.341461 135.323730,340.430847 137.748764,337.238403 
	C141.578003,332.197418 145.042389,326.643402 149.932541,322.410675 
	C152.594467,320.106628 153.944489,316.790619 156.221329,314.289703 
	C164.237106,305.484985 172.947647,297.482483 183.054214,290.968719 
	C187.103928,288.358643 190.569733,284.722473 194.388718,281.645020 
	C199.100189,277.848389 204.316971,274.748840 208.863464,270.944580 
	C213.637772,266.949707 218.519897,263.338440 223.848877,260.220490 
	C234.577118,253.943588 244.022278,245.786453 254.680527,239.364197 
	C263.947296,233.780396 274.325256,230.362778 283.345734,224.536041 
	C290.798920,219.721710 299.176056,217.219467 306.967010,213.315155 
	C313.298340,210.142319 320.251099,208.212967 326.919159,205.707932 
	C334.829803,202.736099 342.705292,199.668732 350.642731,196.770706 
	C359.165436,193.658997 367.703339,190.579285 376.306976,187.701920 
	C384.281494,185.034943 392.221619,182.031586 400.415741,180.319733 
	C408.757111,178.577103 416.885529,176.017853 425.228790,174.249924 
	C435.023590,172.174408 445.244568,171.376892 454.592651,167.300323 
	C456.361542,166.528900 458.180878,166.664200 459.997955,166.660446 
	C470.997650,166.637802 481.998291,166.566879 492.996735,166.686157 
	C497.382629,166.733719 499.366180,165.311020 501.040833,160.701813 
	C503.870605,152.913559 506.424805,145.026138 509.326263,137.276108 
	C511.200470,132.270096 511.143738,127.057625 512.359741,122.003281 
	C515.080933,110.692474 515.491394,98.806076 520.917053,88.183762 
	C522.357666,85.363396 524.748108,83.475945 527.807861,82.138954 
	C534.903992,79.038254 543.039368,80.651398 548.544312,85.999062 
	C556.414612,93.644409 560.549438,103.304474 564.296265,113.260437 
	C568.991882,125.737877 573.786926,138.178513 578.391052,150.689545 
	C580.802490,157.242477 584.614624,159.715591 593.849121,157.729477 
	C599.366943,156.542740 604.707703,156.964706 610.120972,156.712967 
	C615.276428,156.473221 620.480225,157.005066 625.611877,156.581421 
	C634.470154,155.850113 643.015442,158.327805 651.677185,159.144547 
	C662.213623,160.138046 672.915894,161.272659 683.262939,163.173981 
	C691.841370,164.750290 700.528381,163.486069 709.099426,166.098465 
	C714.112854,167.626511 719.981689,168.355637 725.516663,168.526627 
	C728.834412,168.629135 731.919373,169.863708 734.431885,171.092972 
	C739.937683,173.786713 746.338013,174.511017 751.143311,178.820618 
	C753.529846,180.960968 757.098816,180.041550 760.093384,180.854797 
	C769.167297,183.319061 778.343079,185.423920 788.113953,182.200790 
	C792.210266,180.849533 796.765808,179.509521 801.517578,179.414078 
	C805.870544,179.326645 809.896362,176.780121 814.485901,176.096420 
	C821.536560,175.046082 828.588745,173.715652 835.647156,172.508560 
	C844.760681,170.950058 853.891968,169.195572 862.574951,165.707550 
	C870.579651,162.491974 878.740295,159.664673 886.743713,156.445984 
	C889.735596,155.242706 892.682434,153.380280 895.112732,151.568558 
	C898.745422,148.860580 902.789124,146.560486 906.025757,143.248642 
	C911.923279,137.213989 918.946716,133.413727 927.618713,134.725800 
	C937.766663,136.261185 949.981323,143.304245 949.669373,156.703964 
	C949.385376,168.899170 948.039551,180.508102 941.098206,190.462479 
	C936.110291,197.615509 930.070190,204.174591 923.547180,210.120056 
	C919.216919,214.066940 913.911377,216.899811 909.647949,220.751770 
	C903.480957,226.323410 895.787842,229.831329 889.919678,235.969330 
	C891.738525,238.882477 894.591064,240.722153 897.103149,242.032028 
	C904.652649,245.968613 911.432983,250.963409 918.425659,255.706894 
	C932.091003,264.976929 945.190308,274.976074 955.883484,287.601562 
	C963.138367,296.167511 970.256592,304.938782 975.495728,315.048981 
	C978.161743,320.193695 982.665222,324.110016 985.854309,329.007050 
	C989.416077,334.476318 992.605103,340.158539 996.138367,345.623779 
	C1000.792664,352.823120 1003.529297,360.863312 1006.575928,368.709259 
	C1010.564514,378.980682 1013.859985,389.499969 1016.776123,400.196869 
	C1019.193848,409.065552 1019.113586,418.287872 1022.130127,426.932373 
	C1022.445923,427.837311 1022.310242,428.914948 1022.310913,429.912506 
	C1022.321655,447.078766 1023.368225,464.338318 1021.851807,481.369415 
	C1021.161255,489.124512 1019.905457,497.239502 1018.909424,505.053741 
	C1015.523254,531.618103 999.348267,552.482727 989.575928,576.143127 
	C985.821960,585.232117 978.585266,591.643494 972.674194,599.065186 
	C962.489441,611.852905 952.533508,624.960266 940.471191,635.993225 
	C929.751038,645.798401 918.850891,655.538208 909.562134,666.552063 
	C900.155212,677.705994 887.575134,683.701111 876.259766,691.827209 
	C870.451111,695.998718 865.047485,700.750244 859.038330,704.708191 
	C853.264099,708.511475 846.512146,710.096130 840.437378,713.226379 
	C838.778931,714.080994 838.274170,716.175049 836.141174,716.311279 
	C834.490417,716.416687 826.041748,711.027588 825.850708,709.397278 
	C825.734314,708.403687 825.989197,707.614136 826.919800,706.849304 
	C835.907593,699.462219 844.660095,691.778503 853.822327,684.617798 
	C859.339233,680.306091 865.652588,677.040833 871.564636,673.277588 
	C876.251526,670.294312 878.783264,665.734131 882.766785,662.360779 
	C888.656860,657.372803 894.232971,651.997620 899.755554,646.595886 
	C907.698486,638.826660 913.350769,629.880432 915.952759,618.737122 
	C918.013367,609.912476 918.454041,600.944275 920.037903,592.198547 
	C922.983154,575.935913 920.911560,559.765991 921.516052,543.583008 
	C921.763306,536.965698 919.520386,530.496887 918.113770,523.988953 
	C916.804504,517.931519 914.927856,512.029785 913.704651,505.982544 
	C911.158386,493.394135 907.774475,481.211182 902.441833,469.382233 
	C899.209900,462.213074 896.088501,454.833862 893.312012,447.374878 
	C891.060486,441.326355 886.165894,436.311920 882.949768,430.556000 
	C880.465088,426.109222 876.913086,422.510773 874.105042,418.326172 
	C871.230530,414.042572 866.031860,411.666321 861.296692,409.545746 
	C852.488403,405.601044 843.443054,402.177795 834.445251,398.668488 
	C831.784729,397.630829 830.012695,399.081757 828.789795,401.736908 
	C831.644592,405.903168 835.757385,409.032745 839.284668,412.691986 
	C846.769714,420.456970 853.917053,428.468353 858.136047,438.567230 
	C860.510437,444.250671 862.579346,450.119171 863.221069,456.258362 
	C863.492371,458.854279 864.948181,460.807434 865.541321,463.212311 
	C867.463074,471.004242 868.356689,478.927307 869.761047,486.757751 
	C870.945435,493.361603 871.638184,499.846313 871.213684,506.352112 
	C870.631836,515.267334 869.405884,524.128479 867.682312,532.966187 
	C865.314758,545.105957 861.137634,556.415100 855.864563,567.515381 
	C854.238770,570.937744 853.488525,574.914734 852.074524,578.557922 
	C848.333496,588.196167 841.765930,596.145203 835.990356,604.465881 
	C828.395264,615.407654 820.682739,626.276489 811.896973,636.443665 
	C805.216797,644.174255 797.824524,651.964783 794.638794,662.228394 
	C793.345154,666.396179 792.723633,670.790222 791.224304,674.871094 
	C789.941650,678.362549 789.499146,682.869690 784.263489,683.355408 
	C777.706299,683.963562 771.700256,681.634949 769.803833,677.059998 
	C768.728821,674.466614 770.098328,671.171326 771.124451,669.280457 
	C773.610352,664.699707 772.628479,659.705322 774.333618,654.996399 
	C777.757385,645.541504 781.919006,636.872131 788.198242,628.914124 
	C791.699158,624.477173 794.090637,618.989380 798.750305,615.591858 
	C811.021484,606.644531 817.363525,593.328735 824.271790,580.664307 
	C831.660828,567.118591 838.610107,553.166260 843.096436,538.358032 
	C844.447449,533.898438 846.116516,528.999146 845.718262,523.926208 
	C845.493164,521.059387 845.555298,518.394470 847.889404,515.682190 
	C849.992981,513.237732 848.703674,509.239227 848.582336,505.960602 
	C848.430420,501.855042 850.144714,497.320068 846.100281,493.844086 
	C845.378967,493.224121 845.623291,491.292542 845.684692,489.978882 
	C846.314697,476.494263 842.876587,463.890869 838.205078,451.373444 
	C836.528076,446.879852 836.213745,441.697235 833.651306,437.554718 
	C826.939148,426.703888 819.998718,415.972534 808.371399,409.463318 
	C804.352966,407.213684 802.671021,403.283661 803.949036,399.082855 
	C806.694763,390.057556 812.344910,383.111389 821.102173,379.213043 
	C827.886658,376.192871 835.064148,377.105865 841.968811,378.622711 
	C847.163391,379.763824 852.331421,381.298340 857.289246,383.444580 
	C858.734497,384.070251 861.220154,384.425140 862.208191,382.366394 
	C863.057983,380.595764 863.351379,378.228271 861.785767,376.716461 
	C855.781494,370.918213 850.491211,364.531128 843.172546,359.898010 
	C837.431152,356.263336 831.575134,352.566010 826.110596,348.475708 
	C819.299622,343.377563 811.556030,340.497101 803.846069,337.452271 
	C797.656799,335.007965 791.581909,332.294281 785.077026,330.588287 
	C777.226501,328.529388 769.601013,325.620880 761.773315,323.459839 
	C759.962646,322.959930 758.218567,322.241119 756.867371,321.321198 
	C750.033142,316.668457 744.855408,322.705292 739.102661,324.035065 
	C733.383545,325.357086 726.858887,323.676636 723.982239,318.207245 
	C722.197327,314.813446 721.254150,311.219299 721.593384,307.254395 
	C721.768311,305.208801 722.514526,303.640533 723.985229,302.572418 
	C738.847595,291.778717 753.560303,280.922089 771.465088,275.115997 
	C779.182007,272.613586 786.858337,269.407288 794.230042,265.795746 
	C797.998474,263.949493 802.155090,263.978455 806.053284,262.994904 
	C817.411072,260.129211 827.958130,255.840775 837.706909,249.438156 
	C841.907593,246.679337 846.126526,243.948273 850.845215,240.873535 
	C847.421082,238.437531 844.051331,239.062714 840.877502,240.014969 
	C834.438354,241.946899 828.042542,244.188995 821.207458,243.273193 
	C818.337646,242.888687 814.903137,242.422775 812.933228,240.650909 
	C810.156555,238.153381 811.693420,234.050507 811.881104,230.673538 
	C812.010315,228.348602 813.986267,227.228912 816.319763,226.688782 
	C822.599792,225.235199 829.756409,226.252869 835.158752,224.100922 
	C841.971680,221.387039 848.862732,222.565933 855.505554,220.454956 
	C861.007812,218.706482 866.832214,217.929825 872.442078,216.052094 
	C876.688049,214.630920 879.770813,211.862976 883.358582,209.721756 
	C885.749023,208.295074 888.116760,206.832397 890.663147,205.766800 
	C900.716248,201.559830 908.737183,195.282333 914.686707,185.833572 
	C919.088257,178.843292 920.528076,170.642609 925.114136,163.847076 
	C925.965271,162.585861 925.907104,160.965179 924.208130,159.639221 
	C923.757446,159.776810 922.961853,159.770935 922.613159,160.162766 
	C914.996460,168.720871 904.813171,173.893600 895.306763,179.640121 
	C887.343384,184.453888 878.058472,187.308014 869.082214,190.159286 
	C859.053345,193.344894 848.835632,196.357941 838.470154,197.933182 
	C829.598450,199.281403 820.898682,201.518280 811.992249,202.761383 
	C806.862061,203.477432 801.411682,203.815613 796.233643,205.710236 
	C791.759949,207.347076 786.561218,207.582672 781.811768,208.007858 
	C774.412354,208.670273 767.997681,211.804474 761.072754,213.501953 
	C753.939514,215.250488 747.361877,218.221375 741.448242,222.240845 
	C734.635864,226.871216 727.504272,230.996628 720.643738,235.538559 
	C708.043823,243.880219 698.860413,255.634796 688.067932,265.746826 
	C682.745605,270.733612 678.882690,277.243195 673.848572,282.582092 
	C668.558838,288.192169 662.760864,293.341431 656.996033,298.479980 
	C651.329163,303.531128 641.853516,302.028076 638.065735,295.367279 
	C637.048218,293.578064 636.330750,291.937561 634.345032,291.822510 
	C637.693787,280.859222 649.947144,276.805786 652.839661,265.390381 
	C642.870605,265.390381 633.214783,264.280853 623.978149,265.770538 
	C617.548706,266.807495 611.039978,266.197968 604.920227,267.652161 
	C600.493652,268.704041 596.119995,270.289337 591.555969,271.155884 
	C587.111145,271.999847 582.747864,273.277161 578.353882,274.384277 
	C572.842468,275.772919 567.276062,276.988831 561.855896,278.673309 
	C559.554810,279.388458 560.203918,281.532104 561.029053,283.309326 
	C566.779541,295.695129 577.036926,301.076935 590.133301,301.542969 
	C593.512817,301.663269 596.189270,303.055878 598.890442,304.462494 
	C600.147217,305.116943 601.411682,306.277985 600.208923,308.872742 
	C596.577698,316.706879 589.511658,319.685760 581.307190,316.952881 
	C567.992920,312.518066 556.394531,304.918762 544.512573,297.841980 
	C540.521240,295.464752 538.177979,291.099701 533.163208,289.491913 
	C528.138123,287.880798 523.235107,287.922638 518.533813,288.812469 
	C508.440460,290.722931 499.664825,295.784760 491.803833,302.365814 
	C487.620850,305.867676 485.289001,310.214142 486.026001,315.844299 
	C486.303925,317.967651 481.714691,327.918488 479.736237,328.746429 
	C477.613220,329.634827 475.527222,329.927155 473.347626,328.043091 
	C469.276611,324.524048 465.931793,320.150482 463.988739,315.538635 
	C460.102539,306.314758 449.251221,304.413635 440.571625,307.965027 
	C434.330566,310.518707 430.071503,314.718719 426.802917,320.532043 
	C425.149475,323.472809 421.864197,325.452698 419.906708,328.276123 
	C416.993134,332.478516 416.905609,337.779266 415.550781,342.562805 
	C414.756683,345.366638 414.842163,348.641632 411.509155,348.993805 
	C407.975494,349.367249 406.024445,346.325226 404.804565,343.402130 
	C401.572784,335.658264 402.181519,327.406830 402.943146,319.429443 
	C403.406464,314.576752 407.314148,310.363770 407.163300,304.632141 
	C402.526398,302.888306 397.406097,300.868988 391.662231,300.260437 
	C378.072388,298.820618 371.162445,307.720764 364.407135,317.066895 
	C361.932465,320.490631 360.452606,324.640808 357.027283,327.365967 
	C354.406158,329.451324 355.139893,332.285278 355.667053,334.739899 
	C356.227905,337.351685 358.883057,336.352936 360.746826,336.670685 
	C367.849854,337.881622 375.226837,337.489594 381.633514,342.221771 
	C383.716461,343.760284 385.456085,345.853516 385.579102,347.329193 
	C385.929260,351.530182 388.699585,355.423798 386.642944,360.062439 
	C384.970856,363.833862 388.399658,367.183655 392.042450,365.315521 
	C399.940918,361.264923 408.260834,361.541718 416.651581,361.673523 
	C418.280090,361.699127 419.816406,361.767578 421.436279,362.603210 
	C425.401672,364.648804 428.153046,362.942383 428.604462,358.444092 
	C428.897003,355.528595 429.082275,352.760162 430.091125,349.804260 
	C432.107819,343.895660 435.514435,339.852600 441.508728,339.248901 
	C446.140503,338.782410 450.514557,337.421326 454.961243,336.488251 
	C465.635529,334.248505 476.631866,336.256744 487.016815,334.258636 
	C499.999023,331.760803 512.828735,332.905457 525.680969,332.914001 
	C533.051697,332.918884 540.608459,334.736115 547.657166,337.411743 
	C551.932007,339.034363 555.897827,339.345673 560.028137,337.352386 
	C560.752075,337.003052 561.599915,336.746429 562.395081,336.733856 
	C572.444946,336.575073 582.291992,334.377899 591.949707,332.256409 
	C600.674377,330.339874 609.742615,329.995605 618.196777,326.845093 
	C618.349426,326.788177 618.524597,326.788025 618.690125,326.769653 
	C635.825256,324.865479 653.053833,323.506256 670.227844,324.879364 
	C686.723267,326.198212 701.890381,332.422180 715.834473,341.250275 
	C723.244324,345.941528 730.619629,350.807373 735.935303,358.122162 
	C738.966492,362.293427 740.630066,367.170502 742.032471,371.857056 
	C743.582947,377.038788 738.427795,379.739197 734.879028,382.013580 
	C729.216553,385.642700 721.532654,383.712524 718.361145,377.776031 
	C715.025940,371.533112 709.455994,367.594055 704.319397,363.558044 
	C698.929871,359.323334 693.222290,355.135315 686.672180,352.430695 
	C679.969299,349.662964 672.897583,348.195038 665.858887,347.548492 
	C657.099854,346.744019 648.050415,346.342041 639.430237,347.698029 
	C633.067749,348.698853 626.483765,348.575745 620.176697,350.758667 
	C616.278870,352.107697 611.866821,352.504761 607.709656,353.119110 
	C601.446350,354.044708 595.180664,354.243378 589.680420,357.981232 
	C588.725464,358.630188 587.081238,358.254333 585.757263,358.372833 
	C576.973633,359.159088 568.402466,360.777466 560.234314,364.306458 
	C557.357788,365.549255 556.184509,367.408844 556.323853,370.447021 
	C556.453430,373.274292 556.297546,376.113464 556.361328,378.945251 
	C556.457886,383.236664 559.165100,385.280426 562.817627,383.160431 
	C573.275818,377.090210 584.954895,374.120087 596.453125,372.302338 
	C606.642395,370.691498 617.706055,369.412506 627.876221,373.713623 
	C632.485718,375.663025 636.715210,378.705200 640.156189,382.504883 
	C644.494751,387.295685 649.885010,390.574066 655.205200,394.116577 
	C660.055725,397.346313 661.211792,403.498688 664.190674,408.170013 
	C662.533813,409.519531 661.322205,409.343872 660.060669,408.648651 
	C655.072937,405.900055 649.501770,404.818817 644.233643,402.954803 
	C639.470886,401.269531 634.807434,398.949524 629.896179,397.495544 
	C625.718140,396.258606 621.672607,394.487671 617.183899,394.331146 
	C612.619263,394.171967 608.484863,391.771484 603.644714,392.242004 
	C595.802063,393.004425 588.042542,393.766296 580.995056,397.595032 
	C579.093445,398.628082 576.998291,397.892120 575.187378,398.706909 
	C564.755859,403.400330 554.281250,408.253815 547.139832,417.605011 
	C539.522339,427.579651 529.291504,434.257690 518.739136,440.186829 
	C514.208252,442.732574 509.081024,445.357422 503.152924,445.601715 
	C499.045898,445.770966 495.295227,448.389740 490.712585,448.659393 
	C486.102203,448.930695 483.072662,446.175049 479.360931,445.045959 
	C472.041321,442.819366 464.334167,441.506104 457.585266,437.407104 
	C446.698395,430.794952 438.619019,422.129700 434.508911,409.767303 
	C432.303406,403.133606 431.739288,396.163208 429.227600,389.568756 
	C427.565125,385.203766 424.181122,383.354034 420.886230,382.817810 
	C416.018066,382.025574 410.548279,380.813782 405.929871,384.170563 
	C401.706696,387.240143 396.466614,387.015045 391.862640,387.910400 
	C385.450806,389.157318 380.070953,392.197144 374.867432,395.225372 
	C367.765259,399.358612 361.110321,404.256744 353.374451,407.266357 
	C351.125031,408.141479 349.488586,409.612762 347.859558,412.377838 
	C353.281372,412.879669 358.283051,413.425537 363.175781,414.305664 
	C370.659058,415.651794 377.823425,417.351440 384.602783,420.744141 
	C391.402802,424.147125 395.044281,430.598083 394.322662,438.048950 
	C393.954834,441.846863 390.867493,444.442505 387.518341,443.097015 
	C385.365509,442.232178 382.795166,441.789917 381.168304,439.734833 
	C376.622131,433.992279 369.362885,433.951904 363.276520,431.597992 
	C359.451874,430.118866 357.051514,433.273041 357.900757,437.459961 
	C358.227203,439.069275 358.437866,440.770477 358.294891,442.394012 
	C357.828125,447.694885 358.981934,452.529694 362.098053,456.748260 
	C358.156921,461.884430 354.481323,460.903503 350.729980,455.133820 
	C344.622986,445.741089 338.915100,435.761963 328.389740,430.353577 
	C318.279846,425.158630 308.060272,426.499084 299.088776,433.834869 
	C294.062592,437.944672 289.569366,442.857269 285.358002,448.015259 
	C282.248810,451.823242 277.127777,453.844025 271.901733,454.337982 
	C263.115204,455.168365 254.963837,453.285828 247.374435,448.675201 
	C246.082321,447.890259 245.140244,447.097473 244.128845,445.985077 
	C238.237259,439.504913 231.834534,434.237793 222.037582,435.212585 
	C217.493347,435.664734 213.668533,436.994934 210.545715,440.040649 
	C201.377640,448.982391 194.222656,459.420502 190.763855,471.757721 
	C186.836212,485.767242 189.003281,498.552338 199.867004,509.534912 
	C206.190384,515.927490 213.178925,521.400452 220.827530,525.604309 
	C224.716522,527.741760 230.054489,528.661743 235.039368,528.667542 
	C242.327805,528.676025 242.980972,529.601440 245.635773,536.334717 
	C249.216797,545.417114 255.679947,552.256836 263.665924,557.861389 
	C268.773224,561.445679 273.778931,564.831299 279.932770,566.590515 
	C287.429108,568.733459 294.901855,570.310486 302.707428,569.612671 
	C305.498749,569.363220 307.010956,565.295349 305.277435,561.533691 
	C303.379211,557.414612 302.171295,553.055481 300.011444,548.987732 
	C297.521576,544.298401 294.587128,541.758301 289.191711,542.343262 
	C284.815643,542.817627 280.960815,540.414429 276.763855,539.682434 
	C272.454559,538.930847 269.575531,530.123352 269.703278,527.096497 
	C269.757324,525.816223 270.231049,524.733826 271.291962,524.158264 
	C275.606110,521.817810 279.007477,518.250488 284.874451,518.384888 
	C291.601532,518.538940 298.375732,516.773682 305.048370,515.166016 
	C308.688507,514.289001 312.660522,514.834412 316.477844,514.639465 
	C328.929657,514.003540 340.803284,515.852417 352.705261,520.094666 
	C359.899933,522.659119 366.002686,526.189575 370.124268,531.916077 
	C376.934357,541.377991 382.570679,551.707275 386.256775,562.880005 
	C386.861267,564.712158 388.345856,565.856689 388.645294,568.391174 
	C397.584564,564.688110 407.131775,563.794312 415.029877,558.155457 
	C423.998749,551.752197 432.815796,544.447083 443.749054,542.259949 
	C454.250153,540.159241 465.170197,536.842834 475.796143,543.382446 
	C481.846649,547.106201 486.143463,557.665405 483.510620,564.283081 
	C481.491028,569.359314 481.562744,574.411804 484.282104,579.494263 
	C486.320129,583.303406 489.974365,582.310730 492.938416,583.283691 
	C496.926453,584.592773 501.198456,586.841614 505.062531,586.365601 
	C514.449951,585.208923 524.022949,584.391113 531.309143,576.333557 
	C535.354858,571.859497 540.044495,568.253662 542.353210,562.312683 
	C543.572998,559.173767 553.244568,558.587769 558.133972,560.565369 
	C565.883667,563.700073 573.568604,566.693909 582.351746,565.769653 
	C590.162842,564.947693 597.568420,562.590576 603.985840,558.726013 
	C608.157898,556.213501 610.513184,550.427612 610.476868,545.088135 
	C610.448547,540.932007 611.695007,537.286560 613.074402,533.684448 
	C614.897156,528.924927 622.842712,527.162109 628.250183,529.469727 
	C632.288635,531.193054 635.702515,533.811707 639.286377,536.175171 
	C648.872742,542.497070 659.317261,544.748840 670.682678,543.763245 
	C675.315063,543.361450 680.009949,543.656860 684.676270,543.674866 
	C694.751282,543.713745 702.465515,538.989502 709.954041,532.604675 
	C717.399719,526.256287 720.988892,518.005920 723.209534,509.271240 
	C725.508728,500.227722 727.356812,490.610046 725.405396,481.358795 
	C723.254395,471.161407 722.206482,460.541321 716.041992,451.365784 
	C712.042114,445.412109 706.787354,440.808533 702.037170,435.660675 
	C698.567200,431.900208 694.857239,428.342438 691.059631,424.909546 
	C688.455750,422.555725 688.308289,419.696686 688.802490,416.705200 
	C689.359985,413.330872 692.539917,411.709229 695.002686,413.507263 
	C701.598267,418.322784 708.807861,422.064026 716.179443,425.435852 
	C726.924255,430.350677 733.034607,439.250122 738.363831,449.232880 
	C747.096130,465.590424 749.722717,483.050720 748.189087,501.195709 
	C747.702698,506.949799 745.856018,512.691345 743.933960,518.194885 
	C741.684753,524.635010 739.134460,531.002991 735.180359,536.713989 
	C729.146790,545.428406 722.088257,552.892761 712.660095,558.105408 
	C706.801575,561.344360 701.054932,565.144348 694.404541,565.819763 
	C682.443359,567.034607 670.758301,570.005615 658.251038,566.992981 
	C649.168213,564.805176 640.484436,561.822388 630.996704,558.643311 
	C629.837219,565.396240 624.227112,569.212402 620.198059,573.839111 
	C616.063232,578.587280 609.527283,581.513672 603.070801,583.247742 
	C595.901062,585.173523 592.895264,591.200989 596.042847,598.210999 
	C596.509399,599.249939 597.162781,600.139282 597.329102,601.351868 
	C598.495361,609.856934 603.857178,614.190186 612.397705,614.720764 
	C630.664795,615.855713 646.116272,609.554321 659.766479,597.874573 
	C664.170105,594.106628 667.300354,594.009094 671.070190,597.288513 
	C674.821045,600.551453 673.608459,604.233459 671.283752,607.452454 
	C667.208801,613.094910 662.746399,618.117065 656.779114,622.316528 
	C646.960815,629.226196 635.787354,632.275635 624.846069,635.828979 
	C619.071167,637.704529 612.378540,636.696228 605.713196,635.794800 
	C603.635315,637.915344 604.892761,640.505188 605.965454,643.256592 
	C610.966370,656.083313 621.166382,663.759644 633.579468,666.924805 
	C641.883606,669.042175 651.162231,668.583008 660.123169,666.547180 
	C664.576599,665.535522 667.301880,661.412415 672.131348,661.607239 
	C677.866699,661.838623 679.246399,662.917236 679.342590,668.611450 
	C679.370728,670.277649 679.518250,671.963257 679.324768,673.606201 
	C679.107117,675.454224 680.599426,676.598938 680.966553,678.339111 
	C678.814758,681.227966 675.683960,682.420227 672.341003,683.340637 
	C663.324585,685.823059 654.334045,688.079712 644.796143,687.590942 
	C642.053345,687.450378 639.363464,689.555969 636.224487,689.377869 
	C620.606995,688.491455 608.136963,681.956177 598.468079,669.583313 
	C594.045349,663.923767 588.196411,659.409058 585.711304,652.255554 
	C584.443787,648.607178 583.124023,644.971741 581.291443,641.474731 
	C579.994385,638.999756 578.305359,637.773804 576.084961,636.530457 
	C573.512878,637.199951 572.194031,639.476318 570.496155,641.152893 
	C560.822266,650.705261 549.303162,658.046570 539.251160,667.025940 
	C531.279663,674.146790 522.783508,681.020996 516.813843,690.388916 
	C513.689514,695.291870 509.879700,699.944275 507.087830,705.007080 
	C503.762817,711.036865 501.765350,717.817383 499.378265,724.340515 
	C496.925507,731.043030 497.467407,738.546509 493.972351,744.996399 
	C493.107300,746.592896 493.452026,748.032837 494.271637,749.685669 
	C496.574371,754.329468 495.692291,758.739624 492.285187,761.185974 
	C485.040527,766.387451 480.072815,767.126892 476.101471,762.661255 
	C472.366821,758.461609 467.885681,755.215454 463.757568,751.539917 
	C457.034790,745.554138 453.181702,737.474976 447.679596,730.636292 
	C442.157410,723.772522 436.772461,716.579102 428.560730,712.480347 
	C422.202911,709.307007 410.624512,711.385071 405.887756,716.634338 
	C403.510925,719.268372 400.767365,721.509033 398.775452,724.580994 
	C396.016174,728.836426 392.068817,731.514954 386.591858,730.355591 
	C381.271790,729.229431 378.133087,733.410583 374.344177,735.616699 
	C371.546906,737.245422 368.868561,739.086121 365.898224,740.480957 
	C360.913208,742.821777 360.038239,746.068115 362.131470,751.074463 
	C364.943237,757.799377 366.618042,764.976379 370.001556,771.486572 
	C372.009735,775.350586 374.667511,775.825684 378.112854,773.105042 
	C385.461670,767.301880 390.048279,759.230286 395.703461,752.012573 
	C405.001038,740.146301 411.838654,734.724670 428.365753,738.956238 
	C434.749298,740.590637 438.794678,742.894287 440.932465,749.343323 
	C439.379761,751.349670 437.326782,753.072327 434.673035,754.659302 
	C426.858582,759.332581 417.217499,761.578796 411.412323,768.776855 
	C407.362976,773.797729 403.184326,778.442566 398.212952,782.401062 
	C394.154144,785.632935 389.779053,788.464600 385.616974,791.571228 
	C384.041016,792.747559 382.548401,794.089172 381.239075,795.553345 
	C380.016663,796.920044 379.898773,798.662354 381.143158,800.099976 
	C385.874390,805.566162 393.111633,806.749878 400.451355,804.330566 
	C408.249664,801.760193 413.858978,797.405090 417.085480,789.641357 
	C419.020294,784.985596 430.504333,782.385193 435.489655,783.694336 
	C445.693420,786.373901 453.278534,793.170044 461.469910,799.016479 
	C464.153809,800.932129 467.991577,800.300354 470.035400,803.372498 
	C470.238586,803.677856 471.580231,803.703674 471.910614,803.374512 
	C476.335571,798.966125 481.929535,800.658569 486.987854,800.813965 
	C491.792572,800.961426 493.472565,798.265198 494.535522,794.687622 
	C496.657410,787.545959 500.301483,781.388916 504.604156,775.291016 
	C510.800629,766.508972 519.380554,762.259766 528.855164,758.119202 
	C536.159668,754.927002 543.148438,755.885071 550.377991,755.452087 
	C554.050354,755.232239 558.002319,754.513184 561.225220,752.851196 
	C574.923218,745.786987 588.036316,737.733398 600.687683,728.876892 
	C609.097839,722.989258 618.000671,718.609863 628.767151,717.162354 
	C636.356079,716.141968 643.891052,715.296814 651.350342,715.808105 
	C669.335083,717.040771 687.470947,719.620667 702.279175,730.582153 
	C708.744995,735.368347 714.892456,736.753845 721.464600,735.224609 
	C726.587891,734.032532 731.540100,733.549622 736.599243,733.715515 
	C751.746765,734.212280 765.870850,738.929321 778.742981,746.466736 
	C786.025024,750.730774 790.340881,758.389954 793.095947,766.512817 
	C794.185303,769.724792 792.117188,771.680420 789.962646,773.729736 
	C787.764771,775.820190 785.446899,775.746582 783.098389,774.715637 
	C779.918762,773.320068 777.368225,770.998535 774.797607,768.638245 
	C765.964417,760.527649 756.213501,754.567200 744.061035,751.832031 
	C738.885315,750.667175 734.910156,752.434631 730.407532,752.578735 
	C726.430786,752.706055 725.371582,756.712463 728.232361,759.787842 
	C730.936890,762.695251 733.736755,765.534058 736.697510,768.175720 
	C738.515686,769.798035 738.561340,771.664917 738.063049,773.612549 
	C737.502197,775.804810 735.457336,775.208008 733.883179,775.363159 
	C727.896606,775.953247 723.006592,773.777466 717.658997,770.963257 
	C712.303711,768.145020 708.552917,763.657532 703.555420,760.566345 
	C699.455688,758.030396 696.805420,753.276428 692.249573,750.675781 
	C683.717773,745.805603 675.264282,741.640442 665.210632,739.945679 
	C657.090088,738.576721 649.125732,738.307617 641.110046,738.495850 
	C628.347046,738.795654 617.130371,743.457947 607.087341,751.537659 
	C599.683777,757.494080 593.054382,764.632568 583.756287,768.030151 
	C577.328369,770.379028 570.653625,771.683838 564.062317,773.358276 
	C554.278442,775.843872 543.875732,775.005371 534.370728,779.142517 
	C528.483887,781.704712 525.106018,786.649292 521.332214,791.355652 
	C513.156128,801.552002 512.514038,815.149292 505.535370,825.904541 
	C501.429047,832.233032 497.373505,838.420898 491.084045,842.964844 
	C487.661774,845.437195 484.380219,848.559326 484.376740,853.418945 
	C484.373718,857.614075 486.224854,858.638550 490.234680,857.124451 
	C493.589203,855.857910 497.056854,854.890991 500.787079,853.537476 
M532.440308,889.791565 
	C524.756287,888.012573 520.468201,881.163635 522.982056,873.989319 
	C523.920654,871.310730 526.070679,868.500671 523.695007,866.252563 
	C520.839722,863.550598 518.465820,867.686890 515.686218,868.033325 
	C515.424561,868.065979 515.249268,868.551086 514.966980,868.693237 
	C507.265594,872.571106 499.532043,876.646606 490.786591,877.244202 
	C483.328125,877.753784 475.806183,877.408936 468.313660,877.322327 
	C461.765503,877.246643 457.814453,873.097107 457.653809,866.426941 
	C457.530457,861.305847 460.604889,856.809937 460.398956,853.288330 
	C457.278992,847.712585 451.765594,851.138428 448.927826,848.708374 
	C444.970947,845.319824 440.039978,845.273010 436.118195,844.838684 
	C425.776611,843.693481 416.420197,839.147583 406.168640,837.705505 
	C401.102081,836.992798 396.346252,836.616089 391.085358,836.776733 
	C392.934875,840.577820 395.737671,843.863647 395.992371,847.336426 
	C396.690277,856.852539 401.541565,864.713135 404.716278,873.254822 
	C407.198486,879.933350 409.493469,886.725586 411.205322,893.632446 
	C412.621918,899.348022 416.868408,903.526917 422.682068,903.657532 
	C436.041016,903.957581 449.118622,901.750916 462.311310,900.019531 
	C475.101593,898.340759 488.013000,896.982788 500.862244,896.048706 
	C510.365723,895.357849 519.702271,892.390625 529.350891,893.614319 
	C532.034546,893.954651 532.800354,892.219116 533.767151,890.258118 
	C551.241333,892.303162 567.579529,887.542908 584.962585,882.986755 
	C580.242981,877.766357 575.280212,878.598267 571.411011,879.866516 
	C558.786316,884.004639 546.344910,888.640808 532.440308,889.791565 
M398.592926,206.379425 
	C392.335541,207.556198 386.490814,210.005295 380.542175,212.157333 
	C368.404846,216.548233 355.406281,218.620407 344.260132,225.677414 
	C343.428528,226.203903 342.613739,226.888321 341.694672,227.125488 
	C328.080139,230.638870 315.699005,237.359756 302.721527,242.481140 
	C290.356293,247.360886 278.979614,254.701416 266.995026,260.608398 
	C260.952209,263.586792 256.025208,268.047333 250.514160,271.602051 
	C240.408569,278.120361 230.315872,284.773499 220.589722,291.729614 
	C210.355423,299.049164 199.673065,306.013489 190.916977,315.445129 
	C178.738770,328.562958 164.432404,339.637787 153.529068,354.014557 
	C152.544861,355.312317 151.612076,356.494965 151.163147,358.247284 
	C150.530579,360.716370 149.448242,363.181732 147.531342,365.101898 
	C141.163895,371.480164 138.330994,380.330078 132.204742,386.917786 
	C127.785614,391.669769 125.720421,397.857849 123.041718,403.629700 
	C118.860313,412.639496 115.012039,421.764954 112.154655,431.328217 
	C109.971375,438.635376 107.114845,445.660736 105.737877,453.295929 
	C104.801003,458.490845 102.733513,463.802704 102.564392,468.960114 
	C101.985725,486.606354 102.340637,504.283386 102.358597,521.948669 
	C102.360107,523.431213 102.172440,524.953735 102.975906,526.340942 
	C105.245911,530.260193 105.275330,534.880188 106.022331,539.071167 
	C107.212753,545.749817 109.581886,551.883789 111.867294,558.117188 
	C113.940788,563.772583 116.440529,569.280334 118.327896,574.993408 
	C121.788506,585.468811 127.101738,595.115540 133.336533,603.949280 
	C137.509979,609.862366 142.274628,615.443787 145.594757,621.887085 
	C150.575775,631.553467 157.663101,638.196655 168.707672,639.556152 
	C174.715271,640.295715 180.817261,640.657776 186.801559,641.184082 
	C201.027771,642.435303 215.244873,643.436035 229.409531,645.505188 
	C237.678009,646.713074 246.193222,646.653687 254.501785,647.107849 
	C269.832214,647.945862 285.189301,648.911194 300.542358,649.659363 
	C305.442780,649.898132 310.247620,650.245911 315.180115,651.156982 
	C323.695343,652.729858 327.914185,658.343811 331.489075,664.684509 
	C335.216919,671.296570 336.719482,679.062927 340.023163,685.829529 
	C344.437103,694.870056 346.995483,704.319214 349.431213,713.906677 
	C351.394928,721.636475 355.021179,722.565796 362.051331,718.580139 
	C366.970612,715.791199 369.776276,710.809387 374.831879,708.212830 
	C376.832428,707.185364 379.404175,706.678345 380.972717,704.504395 
	C391.177795,690.360657 407.368500,692.894714 421.466248,691.455322 
	C427.492706,690.839905 435.117645,692.681702 441.553833,696.485474 
	C449.440186,701.146301 457.403046,705.067017 462.337280,713.459595 
	C464.691559,717.463989 467.247742,721.455078 469.781921,725.770752 
	C472.938629,723.764099 475.122681,721.772095 475.792694,718.097046 
	C476.395386,714.791138 477.251740,711.254150 479.038391,708.493469 
	C484.409210,700.194824 489.122314,691.414429 493.976471,682.921204 
	C501.038483,670.565002 510.298309,660.986755 521.119690,652.551331 
	C523.935486,650.356445 526.528137,647.540833 529.653564,646.033325 
	C538.909058,641.568787 544.990356,633.318176 552.817993,627.183533 
	C557.448730,623.554382 561.263916,618.441223 565.319519,613.898499 
	C568.232056,610.636047 571.183350,607.002075 568.103333,601.578125 
	C567.003357,599.641052 565.777466,596.940125 565.636230,594.245911 
	C565.454041,590.772339 563.399292,589.423035 560.028503,589.352844 
	C553.158997,589.209839 547.532898,592.920044 542.588989,596.508606 
	C532.728760,603.665588 521.535156,605.587402 510.124908,607.280029 
	C503.153168,608.314148 496.590149,604.293762 489.548584,605.145691 
	C488.880981,605.226501 488.134583,604.195984 487.384644,604.128723 
	C481.389099,603.591125 476.349670,600.941345 471.613220,597.421631 
	C462.124481,590.370300 449.869598,585.435547 451.443054,570.165710 
	C451.658600,568.073792 447.567017,564.770325 445.646851,565.282654 
	C440.544006,566.644043 435.311981,567.083008 430.612640,570.328186 
	C425.405243,573.924194 419.130402,575.943909 413.761383,579.346008 
	C409.339172,582.148193 405.278381,585.269897 399.753693,585.408142 
	C396.152740,585.498169 394.383484,587.422302 394.330811,591.099060 
	C394.223541,598.588196 397.773926,603.901489 402.588806,609.577942 
	C409.669952,617.926270 415.171814,627.646545 421.011444,636.991699 
	C422.385376,639.190308 424.210968,641.706116 423.170410,644.862671 
	C420.719879,652.296997 407.376068,657.567261 401.705597,652.259949 
	C394.825867,645.820801 386.265808,646.455688 378.413513,644.589844 
	C369.860413,642.557373 362.185059,638.801025 354.570892,634.933777 
	C344.826111,629.984375 337.564819,621.801758 330.307953,613.816162 
	C325.922424,608.990173 321.758759,603.867737 318.968567,597.983948 
	C317.334320,594.537781 315.277252,593.010986 311.741272,593.391541 
	C303.078217,594.324036 294.889771,590.416138 286.182709,591.065552 
	C283.405701,591.272644 280.297272,589.563538 277.624878,588.181396 
	C268.719147,583.575623 258.640747,581.343750 251.092575,574.420166 
	C248.558914,576.531006 248.966568,579.014832 249.562973,580.831970 
	C252.645035,590.222778 255.883987,599.573059 259.458008,608.786255 
	C260.997314,612.754333 262.775818,616.234863 259.548492,620.233887 
	C256.809143,623.628235 252.107773,623.202393 249.172760,626.074280 
	C248.969086,626.273560 248.020142,626.110046 247.785843,625.819031 
	C244.631790,621.900879 239.661682,622.702820 235.623474,621.531433 
	C223.936203,618.141357 213.589050,612.417664 204.334808,604.860596 
	C194.086273,596.491638 188.374588,584.837463 184.028198,572.661560 
	C183.138733,570.169800 181.536484,567.696106 181.633499,564.735840 
	C181.949905,555.081482 180.623627,545.396240 185.221603,536.073303 
	C187.421249,531.613220 186.558990,526.877319 182.261032,522.464600 
	C177.922134,518.009827 173.626877,513.277832 172.024460,506.335144 
	C169.482071,495.319855 165.435730,485.053253 168.248062,473.051910 
	C170.785828,462.222168 172.882599,451.610413 179.609238,442.458496 
	C187.858276,431.235260 195.808105,419.916138 210.026093,415.129547 
	C220.373734,411.645935 230.443039,411.713013 240.043213,416.419617 
	C247.833267,420.238770 253.514313,427.536896 262.683838,429.557739 
	C268.593018,430.860016 274.395142,429.837769 278.413879,424.821014 
	C280.543549,422.162506 279.927094,417.537598 275.437042,411.942200 
	C269.027710,403.955109 264.201599,395.325592 264.623901,384.592346 
	C264.721161,382.121185 265.057159,379.330414 264.115631,377.203644 
	C259.771118,367.390289 259.990326,356.833527 258.775513,346.545166 
	C258.138489,341.149994 260.237244,339.533020 265.804260,338.626709 
	C269.985199,337.946106 274.218262,337.132568 278.258423,336.117645 
	C285.441986,334.313019 292.448181,332.354370 299.964752,332.608704 
	C307.122498,332.850891 314.300446,332.488464 321.458984,332.718781 
	C324.856445,332.828094 327.278595,331.575165 329.098541,328.979858 
	C331.060913,326.181427 333.127686,323.393707 334.627228,320.344757 
	C339.528595,310.379059 344.006836,300.310028 352.521423,292.529083 
	C360.701904,285.053436 369.637543,279.147736 380.662933,277.835052 
	C393.636688,276.290344 406.138916,278.654022 417.772888,284.989044 
	C422.835419,287.745758 427.818817,288.325989 433.771851,286.374207 
	C437.910431,285.017365 442.389557,283.547729 447.143616,283.516876 
	C453.966553,283.472595 460.201538,285.787415 466.058411,287.238251 
	C471.957336,281.373962 471.743866,273.693756 473.276917,266.845367 
	C474.112274,263.113647 475.293457,259.328674 475.851898,255.418289 
	C477.735107,242.231079 471.054901,231.534180 466.440918,220.320496 
	C463.077850,212.147064 456.838562,205.635132 451.310059,198.792404 
	C449.449554,196.489655 446.726807,195.299484 444.244568,196.801224 
	C441.234497,198.622253 438.195221,198.338715 435.094635,198.346619 
	C429.957245,198.359711 425.011627,199.959732 420.178467,201.073746 
	C413.268707,202.666412 406.224609,204.069992 398.592926,206.379425 
M102.405563,859.085754 
	C102.681747,860.526062 103.784370,861.479431 104.851669,862.106323 
	C113.142952,866.976257 122.409378,869.278809 131.732986,870.376221 
	C136.968506,870.992371 142.074799,872.382629 147.198761,873.236694 
	C150.963745,873.864380 155.060120,873.837952 158.728622,875.244690 
	C163.629044,877.123779 168.835373,877.894653 173.903702,878.435364 
	C178.978943,878.976868 183.889008,880.409851 188.808167,881.322754 
	C192.274200,881.966064 196.061234,881.743347 199.361786,883.141479 
	C206.484787,886.158569 214.163971,887.004211 221.596756,888.371399 
	C228.867416,889.708740 235.971359,890.848267 243.139053,893.111511 
	C250.744217,895.512817 258.797028,897.737549 267.075287,897.684204 
	C268.550293,897.674683 270.194000,897.646179 271.473846,898.241333 
	C276.151947,900.416626 281.328552,900.433105 286.205170,901.360535 
	C290.967743,902.266235 295.899933,903.258423 300.577026,904.271790 
	C304.597321,905.142883 308.861176,904.643372 312.614532,906.216187 
	C319.595612,909.141418 327.100342,910.062744 334.356171,911.338440 
	C343.007721,912.859558 351.619263,914.844360 360.299988,916.266052 
	C364.690369,916.985107 369.584442,917.053406 374.112976,919.178345 
	C377.367828,920.705688 382.058655,919.995117 385.890808,919.213379 
	C389.042114,918.570557 386.924438,914.771912 388.080658,912.677734 
	C388.399628,912.099915 388.991974,911.619629 389.148010,911.014465 
	C389.861053,908.248474 390.181854,905.415771 388.937042,902.736450 
	C385.352264,895.020691 384.486908,886.517700 381.963776,878.476868 
	C379.440918,870.437134 377.320709,862.251709 374.074493,854.466309 
	C370.709900,846.396851 365.593872,838.914185 363.982849,830.289734 
	C361.978149,819.557739 356.989960,809.951721 353.906158,799.655396 
	C351.726929,792.379089 349.086670,785.240784 346.647766,778.042358 
	C344.056519,770.394348 341.484680,762.739563 338.857880,755.103760 
	C336.849884,749.266907 334.137665,743.588379 332.873016,737.599915 
	C331.086273,729.139282 327.367035,721.330933 325.450043,712.977722 
	C323.874878,706.113831 320.392548,699.977173 318.543121,693.230408 
	C314.986267,680.254700 305.801331,672.996765 292.158508,673.464539 
	C274.887451,674.056763 257.779114,672.007690 240.592300,671.307007 
	C239.764084,671.273254 238.552460,671.448425 238.175186,670.988403 
	C234.810211,666.885803 230.216400,668.776611 226.114502,668.360657 
	C224.628494,668.209961 222.961044,668.651733 221.653625,668.129395 
	C212.738907,664.567383 203.151611,665.993958 193.968994,664.860046 
	C183.290573,663.541321 172.469543,660.963562 161.494446,662.281372 
	C161.172989,662.319946 160.802887,662.291504 160.508514,662.167908 
	C151.647232,658.447388 142.046539,660.204224 132.845596,658.883850 
	C124.188858,657.641541 115.362808,655.129578 106.363449,656.273376 
	C106.046532,656.313599 105.677002,656.252075 105.383896,656.121582 
	C97.846291,652.764526 89.505295,654.983398 81.706573,652.565918 
	C77.004593,651.108459 71.550232,651.149780 66.706375,650.940552 
	C55.653088,650.462952 44.844566,647.070984 33.695194,648.351318 
	C29.678856,648.812500 27.248247,651.579834 28.523197,655.583496 
	C30.206715,660.870300 30.946331,666.438599 32.795135,671.577576 
	C37.484337,684.611694 42.652538,697.491455 48.196156,710.185303 
	C49.335484,712.794189 49.351215,715.474609 50.475075,718.085571 
	C54.573055,727.605713 57.890751,737.467834 61.348560,747.255493 
	C64.210373,755.356140 66.613533,763.625854 69.679581,771.644836 
	C71.771568,777.116211 73.486137,782.693115 75.405472,788.210571 
	C78.438202,796.928894 81.801239,805.533325 84.774254,814.271057 
	C87.006500,820.831543 90.441010,826.846375 92.628113,833.473389 
	C95.408424,841.897949 97.055412,850.860352 102.405563,859.085754 
M943.522400,590.679260 
	C943.390625,592.165833 942.981812,593.831665 944.935974,594.440552 
	C946.065186,594.792480 947.428711,594.768982 948.120789,593.637451 
	C952.037109,587.234070 958.230591,582.411682 960.828125,575.067078 
	C961.573853,572.958496 962.794189,570.897400 964.227478,569.172302 
	C972.265076,559.497925 976.416992,547.515198 983.255798,537.058411 
	C987.421326,530.689270 990.206177,522.648071 992.081665,514.601624 
	C993.688354,507.708282 996.365356,500.758545 997.257080,493.884979 
	C998.818298,481.849915 997.135559,469.542511 999.498413,457.375031 
	C1001.408447,447.539368 996.414978,437.830780 997.599915,427.848450 
	C997.638123,427.526978 997.599426,427.164795 997.487732,426.861725 
	C994.370850,418.407196 993.999695,409.351166 992.063171,400.635651 
	C990.272522,392.576508 986.556152,385.450409 984.203125,377.749298 
	C982.650208,372.666840 978.981628,368.877838 976.547485,364.329773 
	C970.880371,353.740753 966.190063,342.577362 958.106750,333.342255 
	C953.844788,328.472992 950.354980,322.902771 946.735291,317.502411 
	C941.731323,310.036896 936.536743,302.597626 929.317566,297.248322 
	C920.117981,290.431702 911.688965,282.695099 902.546570,275.793732 
	C894.329346,269.590759 886.270752,263.435791 877.112915,258.657745 
	C873.128906,256.579132 870.301819,257.118958 867.452148,260.145996 
	C862.500122,265.406067 856.840271,269.583649 850.342346,272.918610 
	C844.527100,275.903229 838.578735,278.522583 832.716248,281.330048 
	C824.084229,285.463806 814.713928,286.814972 805.901917,290.146271 
	C798.336182,293.006378 790.211182,294.353943 782.485840,296.843048 
	C779.749573,297.724640 776.462036,299.095184 776.645203,302.981018 
	C782.741028,305.431946 789.583008,304.710236 795.508301,307.709167 
	C798.099182,309.020447 800.352722,311.253540 802.848083,312.293365 
	C814.612793,317.195648 825.765625,323.330292 837.106750,329.034210 
	C849.771362,335.403717 862.691711,341.846771 872.232849,352.763824 
	C881.136536,362.951385 890.047119,373.272278 897.597656,384.451019 
	C902.143433,391.181030 905.473877,399.550079 899.034668,407.791138 
	C897.863037,409.290680 898.451294,411.052948 899.323425,412.899872 
	C902.958130,420.596405 907.828186,427.522949 912.210144,434.763123 
	C917.850281,444.082275 922.262329,454.071228 925.831299,464.387665 
	C928.065430,470.845642 930.955383,477.222870 932.077637,483.884552 
	C933.695251,493.486603 937.138794,502.502960 939.928162,511.679108 
	C942.553650,520.316040 944.440063,529.139832 945.040222,537.877258 
	C946.099731,553.302490 945.342590,568.852600 945.344604,584.350403 
	C945.344849,586.348999 945.482788,588.387024 943.522400,590.679260 
M737.106812,194.956223 
	C731.860413,192.396652 727.432068,188.195618 720.928406,188.281464 
	C705.111938,188.490265 689.290649,188.355682 673.471497,188.314087 
	C671.829346,188.309769 669.975952,188.434509 668.585205,187.754105 
	C664.075073,185.547470 658.796692,184.705429 654.403015,184.743851 
	C636.330017,184.901871 618.475708,180.959686 600.388733,182.346191 
	C597.243347,182.587296 594.009338,182.755219 590.910583,182.306061 
	C583.495300,181.231186 581.429260,185.636917 581.333740,192.014084 
	C581.296631,194.493622 582.002869,197.737564 580.732239,199.307465 
	C576.517944,204.514587 577.818115,210.911545 576.719238,216.558914 
	C575.044250,225.167206 574.246643,233.894501 570.791992,242.101135 
	C570.028503,243.914719 569.641357,246.235992 571.114624,247.790497 
	C572.617493,249.376266 574.917725,248.862701 576.781677,248.248108 
	C583.176147,246.139755 589.596924,244.376007 596.430603,244.622345 
	C598.549133,244.698730 600.600769,244.172806 602.716431,243.705505 
	C623.072205,239.209442 643.511963,239.597733 663.936646,243.420166 
	C664.228027,243.474716 664.445068,243.936111 664.735229,243.986450 
	C669.281189,244.775269 674.009583,246.109619 677.877502,242.359558 
	C683.710693,236.704086 690.014526,231.362015 694.932190,224.973633 
	C702.722717,214.853256 713.987976,210.030777 724.207764,203.508408 
	C728.518127,200.757492 734.073669,200.077286 737.106812,194.956223 
M549.487671,224.939285 
	C549.757874,217.326904 553.686401,210.620377 554.890686,203.277924 
	C555.631531,198.761307 557.528198,194.569870 557.723206,189.888428 
	C558.331238,175.290588 556.601318,161.103378 551.838501,147.240204 
	C549.415100,140.186615 547.756470,132.872482 545.426453,125.783195 
	C544.770081,123.786064 544.007874,121.884712 543.489807,119.798599 
	C542.596680,116.201981 542.433350,112.008575 538.680420,109.526634 
	C539.902710,116.430511 535.336243,122.457802 536.286560,129.167084 
	C536.374878,129.790909 536.326721,130.787125 535.943054,131.070694 
	C531.619446,134.266357 532.682861,139.634964 531.804565,143.692963 
	C529.875427,152.605972 526.753540,161.169968 524.861145,170.091019 
	C523.337891,177.271912 520.963806,184.219009 521.337708,191.691467 
	C521.420898,193.353149 521.616638,195.080536 521.282898,196.677856 
	C520.412842,200.841263 519.357483,204.588898 514.627686,206.699387 
	C509.691589,208.901917 508.658020,204.778427 506.351624,202.803833 
	C503.720795,200.551468 501.384766,197.936691 499.044800,195.366333 
	C493.718628,189.515778 487.025146,187.777786 479.382690,188.339325 
	C477.031219,188.512100 475.667236,189.708145 474.730438,191.505417 
	C473.609406,193.656204 474.908051,195.251099 476.358551,196.751923 
	C484.527802,205.204422 491.032043,214.965408 496.522339,225.201401 
	C500.397125,232.425552 503.484253,240.325378 503.379364,248.960739 
	C503.308899,254.761383 500.837616,259.966156 499.707458,265.496490 
	C500.076599,266.697723 501.514648,266.372009 502.083191,267.045441 
	C504.571869,269.993286 506.930023,271.052368 509.510040,267.174438 
	C509.717804,266.862152 510.450439,266.719788 510.903778,266.777344 
	C516.776367,267.523499 522.297974,265.492157 527.957703,264.620880 
	C533.113220,263.827209 537.580261,262.816559 540.578125,257.069946 
	C543.672119,251.139160 543.200500,244.680573 545.593567,238.805771 
	C547.298401,234.620697 547.169312,229.871155 549.487671,224.939285 
M478.579010,421.964020 
	C484.818512,423.071716 490.844818,423.045532 497.022766,420.812744 
	C508.150696,416.790863 517.643188,410.542419 524.591553,401.061432 
	C531.890442,391.102081 533.133789,379.528381 532.915955,367.372498 
	C532.795471,360.652985 529.399292,358.471680 523.502502,358.412079 
	C514.012756,358.316071 504.500427,358.764587 495.036285,358.259064 
	C482.917053,357.611664 471.175598,361.466797 459.023987,360.565979 
	C454.156555,360.205139 449.152130,365.003082 450.652100,367.626587 
	C453.802521,373.136719 450.671112,378.769440 452.076477,384.391083 
	C453.683258,390.818512 454.408936,397.880280 457.100983,403.615906 
	C461.099030,412.134094 467.338043,419.788330 478.579010,421.964020 
M315.459839,355.381256 
	C314.459900,355.382904 313.421783,355.208649 312.466553,355.416138 
	C307.969208,356.393066 304.006165,359.464630 298.958130,358.429413 
	C296.722626,357.970947 294.301880,358.275177 291.976959,358.420715 
	C286.131104,358.786682 282.800018,364.171783 285.287506,369.403564 
	C285.883148,370.656372 286.455139,371.831085 286.293732,373.153412 
	C285.537262,379.351135 286.760040,385.422302 288.586121,391.147034 
	C290.341370,396.649567 293.242096,401.798828 298.866821,404.837433 
	C307.063751,409.265594 314.019592,404.278961 321.335480,402.217682 
	C323.006104,401.746948 323.064606,399.891296 321.863708,398.482758 
	C315.481628,390.997070 315.146118,382.524475 316.300751,373.122528 
	C317.004150,367.394623 320.021027,364.875458 324.296539,364.021271 
	C329.019989,363.077637 334.077423,363.805786 338.476990,363.805786 
	C339.505981,369.960175 339.123260,375.443909 339.408051,380.896942 
	C339.729187,387.044403 335.686066,390.929565 331.807739,395.512360 
	C334.127869,395.605133 335.364746,395.266998 336.827057,394.634674 
	C340.445312,393.070099 342.602936,389.690552 345.789581,387.865112 
	C353.617615,383.380859 358.878632,376.768311 362.959503,369.022034 
	C364.724762,365.671173 362.881104,363.310883 359.846313,362.548035 
	C354.312622,361.157013 348.757568,359.916687 342.871490,360.231598 
	C338.370026,360.472473 333.856567,360.015961 329.225494,359.033386 
	C324.797791,358.094025 321.232361,354.176453 315.459839,355.381256 
M331.654510,570.789978 
	C336.065857,577.244995 338.048370,584.862732 342.591949,591.444336 
	C350.908630,603.491516 362.481476,610.919861 374.622894,617.986328 
	C376.038940,618.810547 377.036438,618.449707 378.089600,617.280518 
	C379.032837,616.233276 379.963318,615.296814 379.107635,613.822205 
	C373.151520,603.558777 372.050232,591.627014 367.727783,580.787720 
	C363.281830,569.638672 359.482788,558.275024 349.666260,550.229736 
	C343.772064,545.399048 337.758606,541.748962 329.745056,542.316772 
	C323.414185,542.765381 321.342377,545.989807 324.113892,551.526428 
	C327.088776,557.469360 329.718567,563.570190 331.654510,570.789978 
M230.651718,579.514648 
	C230.073395,569.667236 227.578430,559.953613 228.653671,549.986694 
	C228.970947,547.045654 227.188004,545.502686 224.678604,544.413513 
	C221.487656,543.028625 217.990387,542.856750 214.774826,541.864685 
	C206.967209,539.455933 199.043213,545.202942 200.539810,553.112366 
	C201.203384,556.619385 201.533752,560.391541 202.676773,563.591309 
	C206.747467,574.986694 212.066208,585.816589 222.116623,593.431152 
	C226.719193,596.918213 230.510040,597.171204 233.883163,594.022949 
	C231.476151,589.871887 229.975845,585.415039 230.651718,579.514648 
z"/>
<path fill="#000000" opacity="1.000000" stroke="none" 
	d="
M481.562927,465.841614 
	C487.541351,470.829681 488.372681,478.019775 490.167206,484.437256 
	C494.045288,498.305786 506.408600,502.302032 517.277527,496.147980 
	C522.191528,493.365692 523.201843,487.069763 524.596252,481.763000 
	C526.450745,474.705200 527.617432,467.419586 530.916931,460.843994 
	C533.859924,454.978668 544.954773,451.711487 551.235474,453.112030 
	C562.574768,455.640594 567.877258,463.787720 572.241577,473.231018 
	C574.805725,478.779114 578.579102,482.080017 585.247559,481.745850 
	C592.892395,481.362762 600.584900,481.946045 608.231812,481.584320 
	C617.695801,481.136658 627.071228,479.726746 635.746216,475.607391 
	C640.947083,473.137756 643.967651,468.576263 645.525085,463.214813 
	C647.177856,457.525391 643.538147,453.170563 639.316772,451.555878 
	C634.450256,449.694427 631.452637,445.420898 626.819641,443.887634 
	C624.002319,442.955261 621.986694,441.475433 619.894043,439.537903 
	C616.503784,436.399109 615.452637,432.929657 617.723877,428.950531 
	C620.029846,424.910736 625.139282,423.240326 629.398682,425.262238 
	C633.942627,427.419250 638.928101,427.020752 643.634949,428.476532 
	C653.967590,431.672302 662.717224,436.625824 666.254028,447.310394 
	C671.347595,462.697662 668.252441,476.410858 657.111389,488.632782 
	C650.368164,496.030212 642.559692,499.663391 632.881104,501.850372 
	C626.998230,503.179688 620.606323,501.723419 615.120361,505.105682 
	C614.156799,505.699738 612.284790,505.642303 611.218445,505.110901 
	C605.356323,502.189301 599.076965,503.088104 593.099792,503.552185 
	C585.500427,504.142273 578.534790,500.792267 571.011292,501.274933 
	C560.910095,501.923004 551.966858,505.573303 543.749329,511.064026 
	C537.388367,515.314270 530.065125,516.822571 523.186218,519.599487 
	C516.836365,522.162781 510.613495,519.693970 504.370514,521.126648 
	C497.995911,522.589539 491.575348,520.628174 485.684601,518.101013 
	C482.877502,516.896790 479.614014,516.552917 477.230377,516.453186 
	C469.213715,516.118225 461.572968,511.513245 453.160309,514.745667 
	C449.050995,516.324646 444.209351,515.918274 439.837677,514.830933 
	C431.203430,512.683289 422.670746,512.304504 414.118988,515.010315 
	C409.380554,516.509521 407.288330,512.784058 404.604797,510.236359 
	C401.427216,507.219757 402.299774,503.346802 403.161896,499.963623 
	C403.973602,496.778259 407.154541,496.693848 410.152008,496.589569 
	C415.685608,496.397186 421.386108,497.843414 426.677887,494.663910 
	C429.202057,493.147278 430.326233,491.470337 430.760132,488.476593 
	C431.971344,480.120636 433.431488,471.514801 439.131195,464.986420 
	C442.325317,461.327911 447.095215,458.388763 452.142303,457.926666 
	C455.534454,457.616089 458.347137,455.329498 461.665375,455.759552 
	C467.551910,456.522491 473.133820,458.302002 477.840363,462.116119 
	C479.108826,463.144073 480.147705,464.455322 481.562927,465.841614 
M454.101868,481.560181 
	C450.651306,484.113800 449.348267,487.630890 450.688721,491.578369 
	C452.108459,495.759308 456.839355,495.284393 459.912781,496.003235 
	C462.539581,496.617615 465.142181,493.662781 466.594696,490.200836 
	C468.485535,485.694183 467.604675,482.710510 464.106598,479.880341 
	C460.519531,476.978210 457.454437,478.198486 454.101868,481.560181 
M553.644409,479.775818 
	C553.602173,476.394653 551.826111,473.904114 548.553223,474.616974 
	C544.964050,475.398743 545.941406,479.740204 544.875244,482.369171 
	C544.294434,483.801239 547.045654,485.575714 549.536133,485.704407 
	C553.466370,485.907440 553.846313,483.536865 553.644409,479.775818 
z"/>
<path fill="#000000" opacity="1.000000" stroke="none" 
	d="
M808.616943,488.464111 
	C810.458069,490.590057 810.343506,492.773621 810.341187,494.946472 
	C810.330017,505.442902 810.155151,515.943359 810.387207,526.434692 
	C810.653870,538.490906 805.690125,548.281128 797.781616,556.816833 
	C792.953857,562.027588 787.699768,566.841431 782.815125,572.001892 
	C778.980530,576.052979 774.171692,577.709290 768.885803,578.380249 
	C764.786194,578.900513 761.298157,582.038879 761.374023,585.717834 
	C761.597656,596.565491 755.638611,605.001953 750.698730,613.870972 
	C748.363647,618.063293 745.071045,621.503845 742.132812,625.207825 
	C737.984802,630.436829 732.164734,633.498657 726.230896,636.239807 
	C721.625854,638.367065 716.411255,638.166687 711.632202,640.005249 
	C707.648926,641.537720 704.044312,638.986023 701.795166,635.894897 
	C699.596558,632.873169 700.099976,629.441162 702.783081,626.400208 
	C704.662720,624.269897 706.789368,623.198914 709.445679,622.070312 
	C723.498840,616.099365 733.922119,606.287048 737.269165,590.886658 
	C738.302673,586.131470 738.894958,580.754517 736.270630,575.825867 
	C734.218140,571.971436 737.447205,565.218201 744.813416,563.526001 
	C753.776794,561.466919 763.103027,560.150635 771.219116,555.388794 
	C777.740051,551.562805 781.681091,544.998169 783.992859,538.432495 
	C786.763000,530.565186 789.729919,522.296570 788.643127,513.543884 
	C786.553284,496.711243 784.868164,479.865967 773.588379,465.753937 
	C769.796875,461.010345 767.566833,454.939697 765.044128,449.287659 
	C763.256775,445.283020 767.090942,443.462524 769.185547,441.075195 
	C771.902771,437.978119 775.274536,438.174744 778.766235,439.325195 
	C784.663269,441.268188 787.577026,446.458221 791.047668,450.940186 
	C796.324890,457.755127 798.956909,466.121155 804.001465,473.182312 
	C806.952881,477.313599 808.441650,482.655853 808.616943,488.464111 
z"/>
<path fill="#000000" opacity="1.000000" stroke="none" 
	d="
M306.806549,459.957916 
	C313.789246,458.915192 319.404999,460.337585 324.157440,465.502258 
	C331.128387,473.077881 327.451172,487.309814 317.717377,490.580200 
	C314.581787,491.633728 311.990265,493.635956 308.251770,493.457153 
	C299.723083,493.049164 291.566925,487.352264 290.065277,479.021118 
	C289.242249,474.454865 292.633026,470.521912 296.245392,468.564270 
	C300.347137,466.341492 303.009003,462.869934 306.806549,459.957916 
z"/>
<path fill="#000000" opacity="1.000000" stroke="none" 
	d="
M209.650894,483.974731 
	C207.181870,473.804474 214.542313,470.261780 220.708054,466.092285 
	C221.656265,465.451080 223.409439,465.415497 224.577881,465.780334 
	C231.760818,468.022949 238.367111,471.234192 240.994522,479.010529 
	C242.015900,482.033600 241.294586,485.042236 239.562119,487.977905 
	C236.852295,492.569641 234.719055,497.242096 229.184784,499.561035 
	C220.239822,503.309113 209.735443,496.771606 209.652695,486.943054 
	C209.645706,486.113403 209.651291,485.283600 209.650894,483.974731 
z"/>
<path fill="#000000" opacity="1.000000" stroke="none" 
	d="
M485.568817,409.291565 
	C481.384277,408.942535 477.282104,410.657196 473.948853,408.311035 
	C469.833618,405.414429 473.440704,401.350708 473.991882,398.502258 
	C475.931549,388.478546 475.369324,378.460144 475.734650,368.436676 
	C475.763336,367.649445 476.006439,366.774750 476.423248,366.112854 
	C478.684937,362.521332 491.108887,361.003021 494.428619,363.724762 
	C499.477020,367.863770 501.220795,373.643494 503.668030,379.424255 
	C507.137238,387.619019 502.122864,393.589691 500.109253,400.236084 
	C498.928406,404.133636 495.765442,407.592682 490.542969,407.533783 
	C489.040802,407.516785 487.525604,408.654388 485.568817,409.291565 
z"/>
</svg>